<svg width="324" height="162" viewBox="0 0 324 162" fill="none" xmlns="http://www.w3.org/2000/svg">
<path d="M135.866 33.2554H150.44V130.415H135.866V33.2554Z" fill="#CCCCCC"/>
<path d="M152.552 10.3265C152.552 15.5177 148.344 19.726 143.153 19.726C137.962 19.726 133.753 15.5177 133.753 10.3265C133.753 5.1353 137.962 0.927002 143.153 0.927002C148.344 0.927002 152.552 5.1353 152.552 10.3265Z" fill="#CCCCCC"/>
<path d="M308.946 39.152H323.52V161.322H308.946V39.152Z" fill="#CCCCCC"/>
<path fill-rule="evenodd" clip-rule="evenodd" d="M294.372 53.7258H289.188C281.139 53.7258 274.614 60.2508 274.614 68.2997V101.91C274.614 109.959 281.139 116.484 289.188 116.484H304.088C306.771 116.484 308.946 114.309 308.946 111.626V68.2997C308.946 60.2508 302.421 53.7258 294.372 53.7258ZM289.188 39.152C273.09 39.152 260.04 52.2019 260.04 68.2997V101.91C260.04 118.008 273.09 131.058 289.188 131.058H304.088C314.82 131.058 323.52 122.358 323.52 111.626V68.2997C323.52 52.2019 310.47 39.152 294.372 39.152H289.188Z" fill="#CCCCCC"/>
<path d="M174.629 33.2554H189.203V130.415H174.629V33.2554Z" fill="#CCCCCC"/>
<path fill-rule="evenodd" clip-rule="evenodd" d="M204.396 53.6467C196.078 53.6467 189.336 60.3891 189.336 68.7063V131.045H174.762V68.7063C174.762 52.3402 188.029 39.0728 204.396 39.0728H214.729C231.095 39.0728 244.362 52.3402 244.362 68.7064V131.045H229.788V68.7064C229.788 60.3891 223.046 53.6467 214.729 53.6467H204.396Z" fill="#CCCCCC"/>
<path fill-rule="evenodd" clip-rule="evenodd" d="M67.8954 39.152V113.268C67.8954 114.61 68.9829 115.697 70.3244 115.697H94.6142C95.9556 115.697 97.0431 114.61 97.0431 113.268V39.152H111.617V113.268C111.617 122.659 104.005 130.271 94.6142 130.271H70.3244C60.934 130.271 53.3215 122.659 53.3215 113.268V39.152H67.8954Z" fill="#CCCCCC"/>
<path fill-rule="evenodd" clip-rule="evenodd" d="M24.1737 39.152V108.41C24.1737 112.435 27.4362 115.697 31.4607 115.697H50.8925C52.234 115.697 53.3214 114.61 53.3214 113.268V39.152H67.8953V113.268C67.8953 122.659 60.2829 130.271 50.8925 130.271H31.4607C19.3873 130.271 9.59985 120.484 9.59985 108.41V39.152H24.1737Z" fill="#CCCCCC"/>
<path d="M126.746 33.2554H141.32V130.415H126.746V33.2554Z" fill="black"/>
<path d="M143.433 10.3265C143.433 15.5177 139.224 19.726 134.033 19.726C128.842 19.726 124.634 15.5177 124.634 10.3265C124.634 5.1353 128.842 0.927002 134.033 0.927002C139.224 0.927002 143.433 5.1353 143.433 10.3265Z" fill="black"/>
<path d="M299.826 39.152H314.4V161.322H299.826V39.152Z" fill="black"/>
<path fill-rule="evenodd" clip-rule="evenodd" d="M285.252 53.7259H280.068C272.019 53.7259 265.494 60.2508 265.494 68.2997V101.91C265.494 109.959 272.019 116.484 280.068 116.484H294.968C297.651 116.484 299.826 114.309 299.826 111.626V68.2997C299.826 60.2508 293.301 53.7259 285.252 53.7259ZM280.068 39.152C263.97 39.152 250.92 52.2019 250.92 68.2997V101.91C250.92 118.008 263.97 131.058 280.068 131.058H294.968C305.7 131.058 314.4 122.358 314.4 111.626V68.2997C314.4 52.2019 301.35 39.152 285.252 39.152H280.068Z" fill="black"/>
<path d="M165.509 33.2554H180.083V130.415H165.509V33.2554Z" fill="black"/>
<path fill-rule="evenodd" clip-rule="evenodd" d="M195.276 53.6467C186.959 53.6467 180.216 60.3891 180.216 68.7063V131.045H165.642V68.7063C165.642 52.3402 178.91 39.0728 195.276 39.0728H205.609C221.975 39.0728 235.242 52.3402 235.242 68.7064V131.045H220.669V68.7064C220.669 60.3891 213.926 53.6467 205.609 53.6467H195.276Z" fill="black"/>
<path fill-rule="evenodd" clip-rule="evenodd" d="M58.7755 39.152V113.268C58.7755 114.61 59.863 115.697 61.2045 115.697H85.4943C86.8358 115.697 87.9233 114.61 87.9233 113.268V39.152H102.497V113.268C102.497 122.659 94.8847 130.271 85.4943 130.271H61.2045C51.8141 130.271 44.2017 122.659 44.2017 113.268V39.152H58.7755Z" fill="black"/>
<path fill-rule="evenodd" clip-rule="evenodd" d="M15.054 39.152V108.41C15.054 112.435 18.3164 115.697 22.3409 115.697H41.7727C43.1142 115.697 44.2017 114.61 44.2017 113.268V39.152H58.7755V113.268C58.7755 122.659 51.1631 130.271 41.7727 130.271H22.3409C10.2675 130.271 0.480103 120.484 0.480103 108.41V39.152H15.054Z" fill="black"/>
</svg>
