<svg width="256" height="256" viewBox="0 0 256 256" fill="none" xmlns="http://www.w3.org/2000/svg">
<g clip-path="url(#clip0_60_734)">
<path d="M0 2C0 0.895431 0.895431 0 2 0H186C224.66 0 256 31.3401 256 70V256H80C35.8172 256 0 220.183 0 176V2Z" fill="white"/>
<path fill-rule="evenodd" clip-rule="evenodd" d="M137.332 69.656V164.57C137.332 166.288 138.724 167.681 140.442 167.681H171.548C173.266 167.681 174.659 166.288 174.659 164.57V69.656H193.322V164.57C193.322 176.595 183.573 186.344 171.548 186.344H140.442C128.417 186.344 118.668 176.595 118.668 164.57V69.656H137.332Z" fill="black"/>
<path fill-rule="evenodd" clip-rule="evenodd" d="M81.3415 69.656V158.349C81.3415 163.503 85.5194 167.681 90.6732 167.681H115.558C117.276 167.681 118.668 166.288 118.668 164.57V69.656H137.332V164.57C137.332 176.595 127.583 186.344 115.558 186.344H90.6732C75.2119 186.344 62.6781 173.81 62.6781 158.349V69.656H81.3415Z" fill="black"/>
</g>
<defs>
<clipPath id="clip0_60_734">
<rect width="256" height="256" fill="white"/>
</clipPath>
</defs>
</svg>
